<svg width="200" height="200" viewBox="0 0 200 200" fill="none" xmlns="http://www.w3.org/2000/svg">
<circle cx="100" cy="100" r="100" fill="white"/>
<path fill-rule="evenodd" clip-rule="evenodd" d="M100 200C155.228 200 200 155.228 200 100C200 61.9753 178.777 28.9075 147.53 11.9958L147.617 96.0508C147.617 103.993 146.51 111.057 144.297 117.242C142.148 123.427 139.023 128.635 134.922 132.867C130.755 137.164 125.677 140.419 119.688 142.633C113.763 144.846 106.992 145.953 99.375 145.953C92.2135 145.953 85.7357 144.846 79.9414 142.633C74.2122 140.419 69.2969 137.197 65.1953 132.965C61.0938 128.733 57.9036 123.525 55.625 117.34C53.4115 111.09 52.3047 103.993 52.3047 96.0508L52.3917 12.0381C21.1877 28.9627 0 62.007 0 100C0 155.228 44.7715 200 100 200ZM79.844 2.03216L79.9414 96.0508C80.0065 100.803 80.4622 104.97 81.3086 108.551C82.2201 112.132 83.5547 115.094 85.3125 117.438C86.9401 119.586 88.9258 121.214 91.2695 122.32C93.6133 123.362 96.3151 123.883 99.375 123.883C102.695 123.883 105.625 123.329 108.164 122.223C110.768 121.051 112.917 119.326 114.609 117.047C116.432 114.703 117.799 111.773 118.711 108.258C119.622 104.742 120.111 100.673 120.176 96.0508L120.273 2.05622C113.726 0.708159 106.946 0 100 0C93.0955 0 86.3545 0.699737 79.844 2.03216Z" fill="black"/>
</svg>
